<mxfile host="app.diagrams.net" agent="Mozilla/5.0 (Windows NT 10.0; Win64; x64) AppleWebKit/537.36 (KHTML, like Gecko) Chrome/138.0.0.0 Safari/537.36" version="27.2.0">
  <diagram name="Page-1" id="RZSCxsbW3NHzzT7Z6nfQ">
    <mxGraphModel dx="1453" dy="852" grid="1" gridSize="10" guides="1" tooltips="1" connect="1" arrows="1" fold="1" page="1" pageScale="1" pageWidth="827" pageHeight="1169" math="0" shadow="0">
      <root>
        <mxCell id="0" />
        <mxCell id="1" parent="0" />
        <mxCell id="UQun8t6Gox2jKoFiVKQr-1" value="&lt;span style=&quot;font-size: 18px;&quot;&gt;alamat&lt;/span&gt;" style="ellipse;whiteSpace=wrap;html=1;fontStyle=4" vertex="1" parent="1">
          <mxGeometry x="40" y="467.5" width="120" height="40" as="geometry" />
        </mxCell>
        <mxCell id="UQun8t6Gox2jKoFiVKQr-2" value="&lt;span style=&quot;font-size: 18px;&quot;&gt;telepon&lt;/span&gt;" style="ellipse;whiteSpace=wrap;html=1;" vertex="1" parent="1">
          <mxGeometry x="107.5" y="507.5" width="102.5" height="40" as="geometry" />
        </mxCell>
        <mxCell id="UQun8t6Gox2jKoFiVKQr-3" value="&lt;span style=&quot;font-size: 18px;&quot;&gt;PENGIRIMAN&lt;/span&gt;" style="rhombus;whiteSpace=wrap;html=1;" vertex="1" parent="1">
          <mxGeometry x="550" y="669" width="170" height="70" as="geometry" />
        </mxCell>
        <mxCell id="UQun8t6Gox2jKoFiVKQr-4" value="&lt;font style=&quot;font-size: 18px;&quot;&gt;order_no&lt;/font&gt;" style="ellipse;whiteSpace=wrap;html=1;shadow=0;fontStyle=4" vertex="1" parent="1">
          <mxGeometry x="609.75" y="412.5" width="118" height="45" as="geometry" />
        </mxCell>
        <mxCell id="UQun8t6Gox2jKoFiVKQr-5" value="&lt;span style=&quot;font-size: 18px;&quot;&gt;jumlah_order&lt;/span&gt;" style="ellipse;whiteSpace=wrap;html=1;" vertex="1" parent="1">
          <mxGeometry x="675.25" y="460" width="143" height="40" as="geometry" />
        </mxCell>
        <mxCell id="UQun8t6Gox2jKoFiVKQr-6" value="&lt;font style=&quot;font-size: 18px;&quot;&gt;tanggal_order&lt;/font&gt;" style="ellipse;whiteSpace=wrap;html=1;" vertex="1" parent="1">
          <mxGeometry x="514.5" y="450" width="125.5" height="40" as="geometry" />
        </mxCell>
        <mxCell id="UQun8t6Gox2jKoFiVKQr-7" value="&lt;span style=&quot;font-size: 18px;&quot;&gt;MEMBUAT&lt;/span&gt;" style="rhombus;whiteSpace=wrap;html=1;" vertex="1" parent="1">
          <mxGeometry x="377.5" y="547.5" width="160" height="60" as="geometry" />
        </mxCell>
        <mxCell id="UQun8t6Gox2jKoFiVKQr-8" value="&lt;span style=&quot;font-size: 18px;&quot;&gt;pembayaran_id&lt;/span&gt;" style="ellipse;whiteSpace=wrap;html=1;shadow=0;fontStyle=4" vertex="1" parent="1">
          <mxGeometry x="1005" y="580" width="156" height="50" as="geometry" />
        </mxCell>
        <mxCell id="UQun8t6Gox2jKoFiVKQr-9" value="&lt;span style=&quot;font-size: 18px;&quot;&gt;nominal&lt;/span&gt;" style="ellipse;whiteSpace=wrap;html=1;shadow=0;" vertex="1" parent="1">
          <mxGeometry x="955" y="640" width="100" height="45" as="geometry" />
        </mxCell>
        <mxCell id="UQun8t6Gox2jKoFiVKQr-10" value="&lt;span style=&quot;font-size: 18px;&quot;&gt;metode&lt;/span&gt;" style="ellipse;whiteSpace=wrap;html=1;shadow=0;" vertex="1" parent="1">
          <mxGeometry x="1105" y="640" width="110" height="40" as="geometry" />
        </mxCell>
        <mxCell id="UQun8t6Gox2jKoFiVKQr-11" value="&lt;font style=&quot;font-size: 18px;&quot;&gt;USER&lt;/font&gt;" style="rounded=1;arcSize=10;whiteSpace=wrap;html=1;align=center;" vertex="1" parent="1">
          <mxGeometry x="217.5" y="412.5" width="100" height="40" as="geometry" />
        </mxCell>
        <mxCell id="UQun8t6Gox2jKoFiVKQr-12" value="&lt;font style=&quot;font-size: 18px;&quot;&gt;name&lt;/font&gt;" style="ellipse;whiteSpace=wrap;html=1;align=center;" vertex="1" parent="1">
          <mxGeometry x="117.5" y="320" width="100" height="40" as="geometry" />
        </mxCell>
        <mxCell id="UQun8t6Gox2jKoFiVKQr-13" value="&lt;span style=&quot;font-size: 18px;&quot;&gt;email&lt;/span&gt;" style="ellipse;whiteSpace=wrap;html=1;align=center;" vertex="1" parent="1">
          <mxGeometry x="40" y="410" width="100" height="40" as="geometry" />
        </mxCell>
        <mxCell id="UQun8t6Gox2jKoFiVKQr-14" value="&lt;span style=&quot;font-size: 18px;&quot;&gt;&lt;u&gt;user_id&lt;/u&gt;&lt;/span&gt;" style="ellipse;whiteSpace=wrap;html=1;align=center;" vertex="1" parent="1">
          <mxGeometry x="50" y="360" width="100" height="40" as="geometry" />
        </mxCell>
        <mxCell id="UQun8t6Gox2jKoFiVKQr-15" value="&lt;font style=&quot;font-size: 18px;&quot;&gt;ORDER&lt;/font&gt;" style="rounded=1;arcSize=10;whiteSpace=wrap;html=1;align=center;" vertex="1" parent="1">
          <mxGeometry x="585" y="557.5" width="100" height="40" as="geometry" />
        </mxCell>
        <mxCell id="UQun8t6Gox2jKoFiVKQr-16" value="&lt;span style=&quot;font-size: 18px;&quot;&gt;PEMBAYARAN&lt;/span&gt;" style="rounded=1;arcSize=10;whiteSpace=wrap;html=1;align=center;" vertex="1" parent="1">
          <mxGeometry x="1005" y="727.5" width="171" height="40" as="geometry" />
        </mxCell>
        <mxCell id="UQun8t6Gox2jKoFiVKQr-17" value="&lt;span style=&quot;font-size: 18px;&quot;&gt;MEMBUAT&lt;/span&gt;" style="rhombus;whiteSpace=wrap;html=1;" vertex="1" parent="1">
          <mxGeometry x="787" y="718.75" width="150" height="58.75" as="geometry" />
        </mxCell>
        <mxCell id="UQun8t6Gox2jKoFiVKQr-18" value="&lt;span style=&quot;font-size: 18px;&quot;&gt;BARANG&lt;/span&gt;" style="rounded=1;arcSize=10;whiteSpace=wrap;html=1;align=center;" vertex="1" parent="1">
          <mxGeometry x="607.5" y="260" width="120" height="40" as="geometry" />
        </mxCell>
        <mxCell id="UQun8t6Gox2jKoFiVKQr-19" value="&lt;span style=&quot;font-size: 18px;&quot;&gt;nama_barang&lt;/span&gt;" style="ellipse;whiteSpace=wrap;html=1;shadow=0;fontStyle=0" vertex="1" parent="1">
          <mxGeometry x="679" y="96.25" width="135.5" height="50" as="geometry" />
        </mxCell>
        <mxCell id="UQun8t6Gox2jKoFiVKQr-20" value="&lt;span style=&quot;font-size: 18px;&quot;&gt;barang_id&lt;/span&gt;" style="ellipse;whiteSpace=wrap;html=1;shadow=0;fontStyle=4" vertex="1" parent="1">
          <mxGeometry x="590" y="40" width="157.5" height="50" as="geometry" />
        </mxCell>
        <mxCell id="UQun8t6Gox2jKoFiVKQr-21" value="&lt;span style=&quot;font-size: 18px;&quot;&gt;harga&lt;/span&gt;" style="ellipse;whiteSpace=wrap;html=1;shadow=0;fontStyle=0" vertex="1" parent="1">
          <mxGeometry x="547.5" y="96.25" width="92.5" height="41" as="geometry" />
        </mxCell>
        <mxCell id="UQun8t6Gox2jKoFiVKQr-22" value="&lt;span style=&quot;font-size: 18px;&quot;&gt;KATEGORI BARANG&lt;/span&gt;" style="rounded=1;arcSize=10;whiteSpace=wrap;html=1;align=center;" vertex="1" parent="1">
          <mxGeometry x="1126.25" y="317.5" width="187.5" height="40" as="geometry" />
        </mxCell>
        <mxCell id="UQun8t6Gox2jKoFiVKQr-23" value="&lt;span style=&quot;font-size: 18px;&quot;&gt;jenis_barang&lt;/span&gt;" style="ellipse;whiteSpace=wrap;html=1;shadow=0;fontStyle=0" vertex="1" parent="1">
          <mxGeometry x="1195" y="418.25" width="147.75" height="41.75" as="geometry" />
        </mxCell>
        <mxCell id="UQun8t6Gox2jKoFiVKQr-24" value="&lt;span style=&quot;font-size: 18px;&quot;&gt;KURIR&lt;/span&gt;" style="rounded=1;arcSize=10;whiteSpace=wrap;html=1;align=center;" vertex="1" parent="1">
          <mxGeometry x="570" y="807.5" width="130" height="40" as="geometry" />
        </mxCell>
        <mxCell id="UQun8t6Gox2jKoFiVKQr-25" value="&lt;span style=&quot;font-size: 18px;&quot;&gt;tracking_id&lt;/span&gt;" style="ellipse;whiteSpace=wrap;html=1;fontStyle=4" vertex="1" parent="1">
          <mxGeometry x="507.5" y="887.5" width="120" height="47.5" as="geometry" />
        </mxCell>
        <mxCell id="UQun8t6Gox2jKoFiVKQr-26" value="&lt;font style=&quot;font-size: 18px;&quot;&gt;order_no&lt;/font&gt;" style="ellipse;whiteSpace=wrap;html=1;shadow=0;fontStyle=0" vertex="1" parent="1">
          <mxGeometry x="597.5" y="935" width="96" height="37.5" as="geometry" />
        </mxCell>
        <mxCell id="UQun8t6Gox2jKoFiVKQr-27" value="&lt;font style=&quot;font-size: 18px;&quot;&gt;status&lt;/font&gt;" style="ellipse;whiteSpace=wrap;html=1;shadow=0;fontStyle=0" vertex="1" parent="1">
          <mxGeometry x="657.5" y="892.5" width="96" height="37.5" as="geometry" />
        </mxCell>
        <mxCell id="UQun8t6Gox2jKoFiVKQr-28" value="" style="endArrow=none;html=1;rounded=0;entryX=0;entryY=0.5;entryDx=0;entryDy=0;exitX=1;exitY=1;exitDx=0;exitDy=0;" edge="1" parent="1" source="UQun8t6Gox2jKoFiVKQr-14" target="UQun8t6Gox2jKoFiVKQr-11">
          <mxGeometry relative="1" as="geometry">
            <mxPoint x="-2.5" y="470" as="sourcePoint" />
            <mxPoint x="157.5" y="470" as="targetPoint" />
          </mxGeometry>
        </mxCell>
        <mxCell id="UQun8t6Gox2jKoFiVKQr-29" value="" style="endArrow=none;html=1;rounded=0;entryX=0;entryY=0.5;entryDx=0;entryDy=0;" edge="1" parent="1" source="UQun8t6Gox2jKoFiVKQr-12" target="UQun8t6Gox2jKoFiVKQr-11">
          <mxGeometry relative="1" as="geometry">
            <mxPoint x="232.5" y="390" as="sourcePoint" />
            <mxPoint x="237.5" y="430" as="targetPoint" />
          </mxGeometry>
        </mxCell>
        <mxCell id="UQun8t6Gox2jKoFiVKQr-30" value="" style="endArrow=none;html=1;rounded=0;exitX=1;exitY=0.5;exitDx=0;exitDy=0;entryX=0;entryY=0.5;entryDx=0;entryDy=0;" edge="1" parent="1" source="UQun8t6Gox2jKoFiVKQr-13" target="UQun8t6Gox2jKoFiVKQr-11">
          <mxGeometry relative="1" as="geometry">
            <mxPoint x="107.5" y="430" as="sourcePoint" />
            <mxPoint x="227.5" y="420" as="targetPoint" />
          </mxGeometry>
        </mxCell>
        <mxCell id="UQun8t6Gox2jKoFiVKQr-31" value="" style="endArrow=none;html=1;rounded=0;entryX=0;entryY=0.5;entryDx=0;entryDy=0;exitX=0.5;exitY=0;exitDx=0;exitDy=0;" edge="1" parent="1" source="UQun8t6Gox2jKoFiVKQr-2" target="UQun8t6Gox2jKoFiVKQr-11">
          <mxGeometry relative="1" as="geometry">
            <mxPoint x="-154.5" y="405" as="sourcePoint" />
            <mxPoint x="5.5" y="405" as="targetPoint" />
          </mxGeometry>
        </mxCell>
        <mxCell id="UQun8t6Gox2jKoFiVKQr-32" value="" style="endArrow=none;html=1;rounded=0;entryX=0.5;entryY=1;entryDx=0;entryDy=0;exitX=0.5;exitY=0;exitDx=0;exitDy=0;" edge="1" parent="1" source="UQun8t6Gox2jKoFiVKQr-27" target="UQun8t6Gox2jKoFiVKQr-24">
          <mxGeometry relative="1" as="geometry">
            <mxPoint x="652.75" y="746.25" as="sourcePoint" />
            <mxPoint x="812.75" y="746.25" as="targetPoint" />
          </mxGeometry>
        </mxCell>
        <mxCell id="UQun8t6Gox2jKoFiVKQr-33" value="" style="endArrow=none;html=1;rounded=0;entryX=0.5;entryY=1;entryDx=0;entryDy=0;exitX=0.5;exitY=0;exitDx=0;exitDy=0;" edge="1" parent="1" source="UQun8t6Gox2jKoFiVKQr-25" target="UQun8t6Gox2jKoFiVKQr-24">
          <mxGeometry relative="1" as="geometry">
            <mxPoint x="550.75" y="794.25" as="sourcePoint" />
            <mxPoint x="592.75" y="839.25" as="targetPoint" />
          </mxGeometry>
        </mxCell>
        <mxCell id="UQun8t6Gox2jKoFiVKQr-34" value="" style="endArrow=none;html=1;rounded=0;entryX=0.5;entryY=1;entryDx=0;entryDy=0;exitX=0.5;exitY=0;exitDx=0;exitDy=0;" edge="1" parent="1" source="UQun8t6Gox2jKoFiVKQr-26" target="UQun8t6Gox2jKoFiVKQr-24">
          <mxGeometry relative="1" as="geometry">
            <mxPoint x="516.75" y="837.25" as="sourcePoint" />
            <mxPoint x="592.75" y="839.25" as="targetPoint" />
          </mxGeometry>
        </mxCell>
        <mxCell id="UQun8t6Gox2jKoFiVKQr-35" value="" style="endArrow=none;html=1;rounded=0;exitX=0.5;exitY=1;exitDx=0;exitDy=0;entryX=0.5;entryY=0;entryDx=0;entryDy=0;" edge="1" parent="1" source="UQun8t6Gox2jKoFiVKQr-4" target="UQun8t6Gox2jKoFiVKQr-15">
          <mxGeometry relative="1" as="geometry">
            <mxPoint x="741.5" y="552.5" as="sourcePoint" />
            <mxPoint x="659.5" y="575" as="targetPoint" />
          </mxGeometry>
        </mxCell>
        <mxCell id="UQun8t6Gox2jKoFiVKQr-36" value="" style="endArrow=none;html=1;rounded=0;entryX=0.5;entryY=0;entryDx=0;entryDy=0;exitX=0.5;exitY=1;exitDx=0;exitDy=0;" edge="1" parent="1" source="UQun8t6Gox2jKoFiVKQr-5" target="UQun8t6Gox2jKoFiVKQr-15">
          <mxGeometry relative="1" as="geometry">
            <mxPoint x="787.5" y="563" as="sourcePoint" />
            <mxPoint x="669.5" y="589.5" as="targetPoint" />
          </mxGeometry>
        </mxCell>
        <mxCell id="UQun8t6Gox2jKoFiVKQr-37" value="" style="endArrow=none;html=1;rounded=0;entryX=0.5;entryY=0;entryDx=0;entryDy=0;exitX=0.5;exitY=1;exitDx=0;exitDy=0;" edge="1" parent="1" source="UQun8t6Gox2jKoFiVKQr-6" target="UQun8t6Gox2jKoFiVKQr-15">
          <mxGeometry relative="1" as="geometry">
            <mxPoint x="809.5" y="588" as="sourcePoint" />
            <mxPoint x="669.5" y="588" as="targetPoint" />
          </mxGeometry>
        </mxCell>
        <mxCell id="UQun8t6Gox2jKoFiVKQr-38" value="" style="endArrow=none;html=1;rounded=0;entryX=0.5;entryY=0;entryDx=0;entryDy=0;exitX=0.5;exitY=1;exitDx=0;exitDy=0;" edge="1" parent="1" source="UQun8t6Gox2jKoFiVKQr-9" target="UQun8t6Gox2jKoFiVKQr-16">
          <mxGeometry relative="1" as="geometry">
            <mxPoint x="983" y="806.25" as="sourcePoint" />
            <mxPoint x="1051" y="776.25" as="targetPoint" />
          </mxGeometry>
        </mxCell>
        <mxCell id="UQun8t6Gox2jKoFiVKQr-39" value="" style="endArrow=none;html=1;rounded=0;entryX=0.5;entryY=1;entryDx=0;entryDy=0;exitX=0.5;exitY=0;exitDx=0;exitDy=0;" edge="1" parent="1" source="UQun8t6Gox2jKoFiVKQr-16" target="UQun8t6Gox2jKoFiVKQr-8">
          <mxGeometry relative="1" as="geometry">
            <mxPoint x="1005" y="750" as="sourcePoint" />
            <mxPoint x="1061" y="786.25" as="targetPoint" />
          </mxGeometry>
        </mxCell>
        <mxCell id="UQun8t6Gox2jKoFiVKQr-40" value="" style="endArrow=none;html=1;rounded=0;entryX=0.5;entryY=1;entryDx=0;entryDy=0;exitX=0.5;exitY=0;exitDx=0;exitDy=0;" edge="1" parent="1" source="UQun8t6Gox2jKoFiVKQr-16" target="UQun8t6Gox2jKoFiVKQr-10">
          <mxGeometry relative="1" as="geometry">
            <mxPoint x="1115" y="819" as="sourcePoint" />
            <mxPoint x="1041" y="819" as="targetPoint" />
          </mxGeometry>
        </mxCell>
        <mxCell id="UQun8t6Gox2jKoFiVKQr-41" value="" style="endArrow=none;html=1;rounded=0;exitX=0.5;exitY=0;exitDx=0;exitDy=0;entryX=0.5;entryY=1;entryDx=0;entryDy=0;" edge="1" parent="1" source="UQun8t6Gox2jKoFiVKQr-18" target="UQun8t6Gox2jKoFiVKQr-19">
          <mxGeometry relative="1" as="geometry">
            <mxPoint x="717.75" y="331.5" as="sourcePoint" />
            <mxPoint x="877.75" y="331.5" as="targetPoint" />
          </mxGeometry>
        </mxCell>
        <mxCell id="UQun8t6Gox2jKoFiVKQr-42" value="" style="endArrow=none;html=1;rounded=0;exitX=0.5;exitY=0;exitDx=0;exitDy=0;entryX=0.5;entryY=1;entryDx=0;entryDy=0;" edge="1" parent="1" source="UQun8t6Gox2jKoFiVKQr-18" target="UQun8t6Gox2jKoFiVKQr-20">
          <mxGeometry relative="1" as="geometry">
            <mxPoint x="722.75" y="351.5" as="sourcePoint" />
            <mxPoint x="839.75" y="323.5" as="targetPoint" />
          </mxGeometry>
        </mxCell>
        <mxCell id="UQun8t6Gox2jKoFiVKQr-43" value="" style="endArrow=none;html=1;rounded=0;exitX=0.5;exitY=0;exitDx=0;exitDy=0;entryX=0.5;entryY=1;entryDx=0;entryDy=0;" edge="1" parent="1" source="UQun8t6Gox2jKoFiVKQr-18" target="UQun8t6Gox2jKoFiVKQr-21">
          <mxGeometry relative="1" as="geometry">
            <mxPoint x="722.75" y="351.5" as="sourcePoint" />
            <mxPoint x="796.75" y="356.5" as="targetPoint" />
          </mxGeometry>
        </mxCell>
        <mxCell id="UQun8t6Gox2jKoFiVKQr-44" value="&lt;span style=&quot;font-size: 18px;&quot;&gt;jenis_id&lt;/span&gt;" style="ellipse;whiteSpace=wrap;html=1;shadow=0;fontStyle=4" vertex="1" parent="1">
          <mxGeometry x="1121.75" y="382.5" width="120" height="40" as="geometry" />
        </mxCell>
        <mxCell id="UQun8t6Gox2jKoFiVKQr-45" value="" style="endArrow=none;html=1;rounded=0;exitX=0.5;exitY=0;exitDx=0;exitDy=0;entryX=0.5;entryY=1;entryDx=0;entryDy=0;" edge="1" parent="1" source="UQun8t6Gox2jKoFiVKQr-44" target="UQun8t6Gox2jKoFiVKQr-22">
          <mxGeometry relative="1" as="geometry">
            <mxPoint x="-679" y="1225.5" as="sourcePoint" />
            <mxPoint x="-519" y="1225.5" as="targetPoint" />
            <Array as="points" />
          </mxGeometry>
        </mxCell>
        <mxCell id="UQun8t6Gox2jKoFiVKQr-46" value="" style="endArrow=none;html=1;rounded=0;exitX=0.5;exitY=0;exitDx=0;exitDy=0;entryX=0.5;entryY=1;entryDx=0;entryDy=0;" edge="1" parent="1" source="UQun8t6Gox2jKoFiVKQr-23" target="UQun8t6Gox2jKoFiVKQr-22">
          <mxGeometry relative="1" as="geometry">
            <mxPoint x="-731" y="1255.5" as="sourcePoint" />
            <mxPoint x="-678" y="1265.5" as="targetPoint" />
          </mxGeometry>
        </mxCell>
        <mxCell id="UQun8t6Gox2jKoFiVKQr-47" value="" style="endArrow=none;html=1;rounded=0;exitX=1;exitY=0;exitDx=0;exitDy=0;entryX=0;entryY=0.5;entryDx=0;entryDy=0;" edge="1" parent="1" source="UQun8t6Gox2jKoFiVKQr-1" target="UQun8t6Gox2jKoFiVKQr-11">
          <mxGeometry relative="1" as="geometry">
            <mxPoint x="-122.5" y="490" as="sourcePoint" />
            <mxPoint x="37.5" y="490" as="targetPoint" />
          </mxGeometry>
        </mxCell>
        <mxCell id="UQun8t6Gox2jKoFiVKQr-48" value="" style="edgeStyle=entityRelationEdgeStyle;fontSize=12;html=1;endArrow=ERoneToMany;rounded=0;exitX=1;exitY=0.5;exitDx=0;exitDy=0;entryX=0;entryY=0.5;entryDx=0;entryDy=0;" edge="1" parent="1" source="UQun8t6Gox2jKoFiVKQr-7" target="UQun8t6Gox2jKoFiVKQr-15">
          <mxGeometry width="100" height="100" relative="1" as="geometry">
            <mxPoint x="527.5" y="577.5" as="sourcePoint" />
            <mxPoint x="547.5" y="627.5" as="targetPoint" />
          </mxGeometry>
        </mxCell>
        <mxCell id="UQun8t6Gox2jKoFiVKQr-49" value="" style="edgeStyle=entityRelationEdgeStyle;fontSize=12;html=1;endArrow=ERoneToMany;rounded=0;exitX=0;exitY=0.5;exitDx=0;exitDy=0;entryX=1;entryY=0.5;entryDx=0;entryDy=0;" edge="1" parent="1" source="UQun8t6Gox2jKoFiVKQr-7" target="UQun8t6Gox2jKoFiVKQr-11">
          <mxGeometry width="100" height="100" relative="1" as="geometry">
            <mxPoint x="357.5" y="480" as="sourcePoint" />
            <mxPoint x="327.5" y="490" as="targetPoint" />
            <Array as="points">
              <mxPoint x="367.5" y="440" />
              <mxPoint x="357.5" y="480" />
              <mxPoint x="317.5" y="440" />
            </Array>
          </mxGeometry>
        </mxCell>
        <mxCell id="UQun8t6Gox2jKoFiVKQr-50" value="" style="endArrow=none;html=1;rounded=0;exitX=0.5;exitY=1;exitDx=0;exitDy=0;entryX=0.5;entryY=0;entryDx=0;entryDy=0;" edge="1" parent="1" source="UQun8t6Gox2jKoFiVKQr-3" target="UQun8t6Gox2jKoFiVKQr-24">
          <mxGeometry relative="1" as="geometry">
            <mxPoint x="467.5" y="757.5" as="sourcePoint" />
            <mxPoint x="627.5" y="757.5" as="targetPoint" />
          </mxGeometry>
        </mxCell>
        <mxCell id="UQun8t6Gox2jKoFiVKQr-51" value="1" style="resizable=0;html=1;whiteSpace=wrap;align=right;verticalAlign=bottom;" connectable="0" vertex="1" parent="UQun8t6Gox2jKoFiVKQr-50">
          <mxGeometry x="1" relative="1" as="geometry" />
        </mxCell>
        <mxCell id="UQun8t6Gox2jKoFiVKQr-52" value="" style="endArrow=none;html=1;rounded=0;exitX=0.5;exitY=0;exitDx=0;exitDy=0;entryX=0.5;entryY=1;entryDx=0;entryDy=0;" edge="1" parent="1" source="UQun8t6Gox2jKoFiVKQr-3" target="UQun8t6Gox2jKoFiVKQr-15">
          <mxGeometry relative="1" as="geometry">
            <mxPoint x="537.5" y="677.5" as="sourcePoint" />
            <mxPoint x="697.5" y="677.5" as="targetPoint" />
          </mxGeometry>
        </mxCell>
        <mxCell id="UQun8t6Gox2jKoFiVKQr-53" value="1" style="resizable=0;html=1;whiteSpace=wrap;align=right;verticalAlign=bottom;" connectable="0" vertex="1" parent="UQun8t6Gox2jKoFiVKQr-52">
          <mxGeometry x="1" relative="1" as="geometry">
            <mxPoint y="20" as="offset" />
          </mxGeometry>
        </mxCell>
        <mxCell id="UQun8t6Gox2jKoFiVKQr-54" value="" style="endArrow=none;html=1;rounded=0;exitX=1;exitY=0.5;exitDx=0;exitDy=0;entryX=0;entryY=0.5;entryDx=0;entryDy=0;" edge="1" parent="1" source="UQun8t6Gox2jKoFiVKQr-17" target="UQun8t6Gox2jKoFiVKQr-16">
          <mxGeometry relative="1" as="geometry">
            <mxPoint x="951.5" y="796.875" as="sourcePoint" />
            <mxPoint x="699.5" y="862.5" as="targetPoint" />
          </mxGeometry>
        </mxCell>
        <mxCell id="UQun8t6Gox2jKoFiVKQr-55" value="1" style="resizable=0;html=1;whiteSpace=wrap;align=right;verticalAlign=bottom;" connectable="0" vertex="1" parent="UQun8t6Gox2jKoFiVKQr-54">
          <mxGeometry x="1" relative="1" as="geometry">
            <mxPoint x="-7" as="offset" />
          </mxGeometry>
        </mxCell>
        <mxCell id="UQun8t6Gox2jKoFiVKQr-56" value="" style="endArrow=none;html=1;rounded=0;exitX=0;exitY=0.5;exitDx=0;exitDy=0;entryX=1;entryY=0.5;entryDx=0;entryDy=0;" edge="1" parent="1" source="UQun8t6Gox2jKoFiVKQr-17" target="UQun8t6Gox2jKoFiVKQr-15">
          <mxGeometry relative="1" as="geometry">
            <mxPoint x="907.5" y="551.5" as="sourcePoint" />
            <mxPoint x="964.5" y="515.5" as="targetPoint" />
          </mxGeometry>
        </mxCell>
        <mxCell id="UQun8t6Gox2jKoFiVKQr-57" value="1" style="resizable=0;html=1;whiteSpace=wrap;align=right;verticalAlign=bottom;" connectable="0" vertex="1" parent="UQun8t6Gox2jKoFiVKQr-56">
          <mxGeometry x="1" relative="1" as="geometry">
            <mxPoint x="15" as="offset" />
          </mxGeometry>
        </mxCell>
        <mxCell id="UQun8t6Gox2jKoFiVKQr-58" value="&lt;span style=&quot;font-size: 18px;&quot;&gt;MEMILIKI&lt;/span&gt;" style="rhombus;whiteSpace=wrap;html=1;" vertex="1" parent="1">
          <mxGeometry x="906.25" y="312.5" width="150" height="50" as="geometry" />
        </mxCell>
        <mxCell id="UQun8t6Gox2jKoFiVKQr-59" value="" style="edgeStyle=entityRelationEdgeStyle;fontSize=12;html=1;endArrow=ERoneToMany;rounded=0;entryX=0;entryY=0.5;entryDx=0;entryDy=0;exitX=1;exitY=0.5;exitDx=0;exitDy=0;" edge="1" parent="1" source="UQun8t6Gox2jKoFiVKQr-58" target="UQun8t6Gox2jKoFiVKQr-22">
          <mxGeometry width="100" height="100" relative="1" as="geometry">
            <mxPoint x="1040" y="247.5" as="sourcePoint" />
            <mxPoint x="950" y="237.5" as="targetPoint" />
          </mxGeometry>
        </mxCell>
        <mxCell id="UQun8t6Gox2jKoFiVKQr-60" value="" style="edgeStyle=entityRelationEdgeStyle;fontSize=12;html=1;endArrow=ERoneToMany;rounded=0;entryX=1;entryY=0.75;entryDx=0;entryDy=0;exitX=0;exitY=0.5;exitDx=0;exitDy=0;" edge="1" parent="1" source="UQun8t6Gox2jKoFiVKQr-58" target="UQun8t6Gox2jKoFiVKQr-18">
          <mxGeometry width="100" height="100" relative="1" as="geometry">
            <mxPoint x="861.25" y="345" as="sourcePoint" />
            <mxPoint x="961.25" y="245" as="targetPoint" />
          </mxGeometry>
        </mxCell>
        <mxCell id="UQun8t6Gox2jKoFiVKQr-61" value="&lt;span style=&quot;font-size: 18px;&quot;&gt;MENCARI&lt;/span&gt;" style="rhombus;whiteSpace=wrap;html=1;" vertex="1" parent="1">
          <mxGeometry x="377.5" y="250" width="160" height="60" as="geometry" />
        </mxCell>
        <mxCell id="UQun8t6Gox2jKoFiVKQr-62" value="&lt;span style=&quot;font-size: 18px;&quot;&gt;deskripsi&lt;/span&gt;" style="ellipse;whiteSpace=wrap;html=1;shadow=0;fontStyle=0" vertex="1" parent="1">
          <mxGeometry x="487.5" y="137.25" width="92.5" height="41" as="geometry" />
        </mxCell>
        <mxCell id="UQun8t6Gox2jKoFiVKQr-63" value="" style="endArrow=none;html=1;rounded=0;exitX=0.5;exitY=0;exitDx=0;exitDy=0;entryX=0.5;entryY=1;entryDx=0;entryDy=0;" edge="1" parent="1" source="UQun8t6Gox2jKoFiVKQr-18" target="UQun8t6Gox2jKoFiVKQr-62">
          <mxGeometry relative="1" as="geometry">
            <mxPoint x="673.5" y="265" as="sourcePoint" />
            <mxPoint x="603.5" y="147" as="targetPoint" />
          </mxGeometry>
        </mxCell>
        <mxCell id="UQun8t6Gox2jKoFiVKQr-64" value="&lt;span style=&quot;font-size: 18px;&quot;&gt;ulasan&lt;/span&gt;" style="ellipse;whiteSpace=wrap;html=1;shadow=0;fontStyle=0" vertex="1" parent="1">
          <mxGeometry x="753.75" y="150" width="92.5" height="41" as="geometry" />
        </mxCell>
        <mxCell id="UQun8t6Gox2jKoFiVKQr-65" value="" style="endArrow=none;html=1;rounded=0;exitX=0.5;exitY=0;exitDx=0;exitDy=0;entryX=0.5;entryY=1;entryDx=0;entryDy=0;" edge="1" parent="1" source="UQun8t6Gox2jKoFiVKQr-18" target="UQun8t6Gox2jKoFiVKQr-64">
          <mxGeometry relative="1" as="geometry">
            <mxPoint x="673.5" y="265" as="sourcePoint" />
            <mxPoint x="756.5" y="156" as="targetPoint" />
          </mxGeometry>
        </mxCell>
        <mxCell id="UQun8t6Gox2jKoFiVKQr-66" value="&lt;span style=&quot;font-size: 18px;&quot;&gt;kurir_id&lt;/span&gt;" style="ellipse;whiteSpace=wrap;html=1;shadow=0;fontStyle=0" vertex="1" parent="1">
          <mxGeometry x="411.5" y="870" width="96" height="37.5" as="geometry" />
        </mxCell>
        <mxCell id="UQun8t6Gox2jKoFiVKQr-67" value="" style="endArrow=none;html=1;rounded=0;entryX=0.5;entryY=1;entryDx=0;entryDy=0;exitX=0.5;exitY=0;exitDx=0;exitDy=0;" edge="1" parent="1" source="UQun8t6Gox2jKoFiVKQr-66" target="UQun8t6Gox2jKoFiVKQr-24">
          <mxGeometry relative="1" as="geometry">
            <mxPoint x="577.5" y="898" as="sourcePoint" />
            <mxPoint x="645.5" y="858" as="targetPoint" />
          </mxGeometry>
        </mxCell>
        <mxCell id="UQun8t6Gox2jKoFiVKQr-68" value="&lt;span style=&quot;font-size: 18px;&quot;&gt;barang_id&lt;/span&gt;" style="ellipse;whiteSpace=wrap;html=1;" vertex="1" parent="1">
          <mxGeometry x="747.5" y="507.5" width="143" height="40" as="geometry" />
        </mxCell>
        <mxCell id="UQun8t6Gox2jKoFiVKQr-69" value="" style="endArrow=none;html=1;rounded=0;entryX=0.5;entryY=0;entryDx=0;entryDy=0;exitX=0;exitY=1;exitDx=0;exitDy=0;" edge="1" parent="1" source="UQun8t6Gox2jKoFiVKQr-68" target="UQun8t6Gox2jKoFiVKQr-15">
          <mxGeometry relative="1" as="geometry">
            <mxPoint x="700.5" y="503" as="sourcePoint" />
            <mxPoint x="645.5" y="568" as="targetPoint" />
          </mxGeometry>
        </mxCell>
        <mxCell id="UQun8t6Gox2jKoFiVKQr-70" value="" style="edgeStyle=entityRelationEdgeStyle;fontSize=12;html=1;endArrow=ERzeroToMany;endFill=1;rounded=0;entryX=1;entryY=0.25;entryDx=0;entryDy=0;exitX=0;exitY=0.5;exitDx=0;exitDy=0;" edge="1" parent="1" source="UQun8t6Gox2jKoFiVKQr-61" target="UQun8t6Gox2jKoFiVKQr-11">
          <mxGeometry width="100" height="100" relative="1" as="geometry">
            <mxPoint x="387.5" y="360" as="sourcePoint" />
            <mxPoint x="487.5" y="260" as="targetPoint" />
          </mxGeometry>
        </mxCell>
        <mxCell id="UQun8t6Gox2jKoFiVKQr-71" value="" style="edgeStyle=entityRelationEdgeStyle;fontSize=12;html=1;endArrow=ERmany;rounded=0;exitX=1;exitY=0.5;exitDx=0;exitDy=0;entryX=0;entryY=0.5;entryDx=0;entryDy=0;" edge="1" parent="1" source="UQun8t6Gox2jKoFiVKQr-61" target="UQun8t6Gox2jKoFiVKQr-18">
          <mxGeometry width="100" height="100" relative="1" as="geometry">
            <mxPoint x="597.5" y="360" as="sourcePoint" />
            <mxPoint x="697.5" y="260" as="targetPoint" />
          </mxGeometry>
        </mxCell>
        <mxCell id="UQun8t6Gox2jKoFiVKQr-72" value="&lt;span style=&quot;font-size: 18px;&quot;&gt;DIMASUKAN&lt;/span&gt;" style="rhombus;whiteSpace=wrap;html=1;" vertex="1" parent="1">
          <mxGeometry x="906.25" y="190" width="190" height="60" as="geometry" />
        </mxCell>
        <mxCell id="UQun8t6Gox2jKoFiVKQr-73" value="&lt;span style=&quot;font-size: 18px;&quot;&gt;KERANJANG&lt;/span&gt;" style="rounded=1;arcSize=10;whiteSpace=wrap;html=1;align=center;" vertex="1" parent="1">
          <mxGeometry x="1174.5" y="200" width="187.5" height="40" as="geometry" />
        </mxCell>
        <mxCell id="UQun8t6Gox2jKoFiVKQr-74" value="&lt;span style=&quot;font-size: 18px;&quot;&gt;keranjang_no&lt;/span&gt;" style="ellipse;whiteSpace=wrap;html=1;" vertex="1" parent="1">
          <mxGeometry x="459.5" y="500" width="125.5" height="40" as="geometry" />
        </mxCell>
        <mxCell id="UQun8t6Gox2jKoFiVKQr-75" value="&lt;span style=&quot;font-size: 18px;&quot;&gt;keranjang_no&lt;/span&gt;" style="ellipse;whiteSpace=wrap;html=1;shadow=0;fontStyle=0" vertex="1" parent="1">
          <mxGeometry x="1137.5" y="103.38" width="150" height="41" as="geometry" />
        </mxCell>
        <mxCell id="UQun8t6Gox2jKoFiVKQr-76" value="&lt;span style=&quot;font-size: 18px;&quot;&gt;barang_id&lt;/span&gt;" style="ellipse;whiteSpace=wrap;html=1;shadow=0;fontStyle=0" vertex="1" parent="1">
          <mxGeometry x="1247.5" y="138.13" width="130" height="41" as="geometry" />
        </mxCell>
        <mxCell id="UQun8t6Gox2jKoFiVKQr-77" value="" style="endArrow=none;html=1;rounded=0;exitX=0.5;exitY=1;exitDx=0;exitDy=0;entryX=0.5;entryY=0;entryDx=0;entryDy=0;" edge="1" parent="1" source="UQun8t6Gox2jKoFiVKQr-75" target="UQun8t6Gox2jKoFiVKQr-73">
          <mxGeometry relative="1" as="geometry">
            <mxPoint x="877.5" y="351" as="sourcePoint" />
            <mxPoint x="1037.5" y="351" as="targetPoint" />
          </mxGeometry>
        </mxCell>
        <mxCell id="UQun8t6Gox2jKoFiVKQr-78" value="" style="endArrow=none;html=1;rounded=0;exitX=0.5;exitY=1;exitDx=0;exitDy=0;entryX=0.5;entryY=0;entryDx=0;entryDy=0;" edge="1" parent="1" source="UQun8t6Gox2jKoFiVKQr-76" target="UQun8t6Gox2jKoFiVKQr-73">
          <mxGeometry relative="1" as="geometry">
            <mxPoint x="1122.5" y="152" as="sourcePoint" />
            <mxPoint x="1217.5" y="191" as="targetPoint" />
          </mxGeometry>
        </mxCell>
        <mxCell id="UQun8t6Gox2jKoFiVKQr-79" value="" style="edgeStyle=entityRelationEdgeStyle;fontSize=12;html=1;endArrow=ERoneToMany;rounded=0;entryX=1;entryY=0.25;entryDx=0;entryDy=0;exitX=0;exitY=0.5;exitDx=0;exitDy=0;" edge="1" parent="1" source="UQun8t6Gox2jKoFiVKQr-72" target="UQun8t6Gox2jKoFiVKQr-18">
          <mxGeometry width="100" height="100" relative="1" as="geometry">
            <mxPoint x="987.5" y="250" as="sourcePoint" />
            <mxPoint x="1087.5" y="150" as="targetPoint" />
          </mxGeometry>
        </mxCell>
        <mxCell id="UQun8t6Gox2jKoFiVKQr-80" value="" style="edgeStyle=entityRelationEdgeStyle;fontSize=12;html=1;endArrow=ERzeroToMany;endFill=1;rounded=0;entryX=0;entryY=0.5;entryDx=0;entryDy=0;exitX=1;exitY=0.5;exitDx=0;exitDy=0;" edge="1" parent="1" source="UQun8t6Gox2jKoFiVKQr-72" target="UQun8t6Gox2jKoFiVKQr-73">
          <mxGeometry width="100" height="100" relative="1" as="geometry">
            <mxPoint x="657.5" y="340" as="sourcePoint" />
            <mxPoint x="757.5" y="240" as="targetPoint" />
          </mxGeometry>
        </mxCell>
        <mxCell id="UQun8t6Gox2jKoFiVKQr-81" value="" style="endArrow=none;html=1;rounded=0;entryX=0.5;entryY=0;entryDx=0;entryDy=0;exitX=1;exitY=1;exitDx=0;exitDy=0;" edge="1" parent="1" source="UQun8t6Gox2jKoFiVKQr-74" target="UQun8t6Gox2jKoFiVKQr-15">
          <mxGeometry relative="1" as="geometry">
            <mxPoint x="537.5" y="503" as="sourcePoint" />
            <mxPoint x="645.5" y="568" as="targetPoint" />
          </mxGeometry>
        </mxCell>
      </root>
    </mxGraphModel>
  </diagram>
</mxfile>
